<svg xmlns="http://www.w3.org/2000/svg" xmlns:xlink="http://www.w3.org/1999/xlink" width="557.901" height="721.891" viewBox="0 0 557.901 721.891">
  <defs>
    <clipPath id="clip-path">
      <rect id="Rectangle_423" data-name="Rectangle 423" width="544.083" height="701.975" fill="none"/>
    </clipPath>
  </defs>
  <g id="Group_857" data-name="Group 857" transform="translate(-173.599 -705.75)">
    <g id="Group_801" data-name="Group 801" transform="translate(182.016 725.666)">
      <g id="Group_800" data-name="Group 800" clip-path="url(#clip-path)">
        <path id="Path_11280" data-name="Path 11280" d="M261.248,678.362l-.113-2c2.666-.15,5.361-.327,8.011-.526l.15,1.994C266.634,678.033,263.926,678.211,261.248,678.362Z" transform="translate(89.625 22.812)" fill="#171717"/>
        <path id="Path_11281" data-name="Path 11281" d="M322.5,701.54v-2c4.03,0,8.042-.048,11.926-.137l.045,2C330.573,701.491,326.546,701.537,322.5,701.54Zm-11.968-.114c-3.881-.075-7.906-.188-11.962-.336l.073-2c4.044.148,8.057.261,11.927.335Zm-23.91-.846c-3.925-.189-7.943-.4-11.942-.636l.116-2c3.993.233,8,.447,11.922.635Zm-23.878-1.391c-3.918-.267-7.931-.558-11.927-.866l.154-1.994c3.99.308,8,.6,11.909.865ZM238.9,697.352c-3.91-.335-7.917-.7-11.91-1.07l.187-1.991c3.987.374,7.989.734,11.894,1.069Zm-23.81-2.232c-3.9-.4-7.9-.816-11.891-1.249l.216-1.988c3.985.432,7.981.852,11.877,1.247Zm-23.773-2.577c-3.832-.441-7.767-.906-11.7-1.382l-.175-.021.241-1.985.174.021c3.926.475,7.857.94,11.684,1.381ZM167.581,689.6c-4.09-.566-8.074-1.16-11.84-1.765l.317-1.975c3.752.6,7.721,1.194,11.8,1.758Zm-23.638-3.819c-4.029-.76-7.978-1.57-11.737-2.409l.436-1.952c3.738.834,7.666,1.64,11.673,2.4Zm-23.386-5.244c-3.954-1.048-7.83-2.171-11.521-3.337l.6-1.907c3.662,1.157,7.507,2.271,11.431,3.311Zm-22.864-7.259c-3.822-1.444-7.556-2.99-11.1-4.6l.826-1.822c3.5,1.588,7.2,3.117,10.979,4.546Zm-21.87-9.913c-3.753-2.011-7.239-4.072-10.36-6.126l1.1-1.671c3.071,2.021,6.5,4.051,10.2,6.033ZM55.817,649.973a54.838,54.838,0,0,1-8.266-8.9L49.17,639.9a52.835,52.835,0,0,0,7.966,8.571ZM42.2,630.075a53.509,53.509,0,0,1-1.91-12l2-.113a51.557,51.557,0,0,0,1.834,11.553Zm.072-23.968-2-.065q.036-1.118.076-2.225c.071-2.019.137-3.927.169-5.822.023-1.341.056-2.653.1-3.9l2,.07c-.043,1.234-.076,2.533-.1,3.862-.032,1.913-.1,3.829-.17,5.858Q42.312,604.991,42.275,606.107Zm1.2-23.777-1.987-.229a102.021,102.021,0,0,1,2.047-11.885l1.946.46A100.039,100.039,0,0,0,43.47,582.331Zm5.544-22.9-1.856-.746c.112-.28.228-.562.343-.84a63.808,63.808,0,0,1,5.225-9.925L54.41,549a61.808,61.808,0,0,0-5.061,9.613C49.236,558.886,49.124,559.161,49.014,559.433ZM61.568,539.65l-1.492-1.332a100.655,100.655,0,0,1,8.588-8.47l1.32,1.5A98.637,98.637,0,0,0,61.568,539.65Zm17.679-15.715-1.194-1.6c3.341-2.487,6.769-4.952,9.681-7.036l1.164,1.627C85.993,519,82.575,521.457,79.247,523.934Zm19.37-13.972-1.171-1.621c3.769-2.723,6.812-4.979,9.575-7.1l1.218,1.587C105.46,504.96,102.4,507.227,98.618,509.962ZM117.564,495.3l-1.277-1.539c2.781-2.307,6.33-5.036,9.434-7.4l1.212,1.591C123.845,490.307,120.316,493.02,117.564,495.3Zm18.887-14.576-1.213-1.59c3.767-2.872,6.762-5.2,9.425-7.313l1.244,1.566C143.234,475.515,140.229,477.847,136.451,480.727Zm18.694-14.992-1.317-1.505a96.127,96.127,0,0,0,8.491-8.217l1.495,1.329A98.073,98.073,0,0,1,155.145,465.735Zm-28.7-7.073q-1.946,0-4.009-.067l.065-2a98.428,98.428,0,0,0,11.821-.258l.179,1.992C132.043,458.551,129.345,458.662,126.448,458.662Zm-16-.914c-3.8-.4-7.8-.923-11.9-1.566l.31-1.976c4.063.638,8.032,1.16,11.8,1.553Zm35.955-.735-.246-1.985c3.854-.478,7.83-1.017,11.818-1.6l.291,1.979C154.266,455.992,150.274,456.534,146.405,457.013ZM86.75,454.064c-3.885-.781-7.823-1.655-11.7-2.6l.472-1.944c3.855.936,7.767,1.8,11.626,2.58Zm83.344-.527-.333-1.972c3.911-.66,7.861-1.368,11.739-2.105l.374,1.965C177.982,452.164,174.018,452.875,170.094,453.536Zm23.516-4.475-.416-1.956c3.934-.836,7.849-1.716,11.636-2.614l.461,1.946C201.489,447.339,197.559,448.222,193.61,449.062ZM63.454,448.4c-2.377-.681-4.73-1.39-6.994-2.108-1.512-.479-3.013-.991-4.463-1.52l.686-1.879c1.422.52,2.9,1.022,4.38,1.492,2.247.712,4.582,1.416,6.941,2.092Zm107.363-.935-1.695-1.062a112.241,112.241,0,0,0,5.791-10.325l1.8.879A114.2,114.2,0,0,1,170.817,447.47Zm46.092-3.946-.512-1.933c3.937-1.044,7.8-2.129,11.474-3.226l.572,1.917C224.746,441.385,220.866,442.476,216.909,443.525ZM40.938,439.941a78.774,78.774,0,0,1-10.286-6.356l1.183-1.613a76.766,76.766,0,0,0,10.024,6.193Zm198.927-3.293-.644-1.894c3.92-1.332,7.68-2.708,11.176-4.09l.735,1.86C247.606,433.918,243.815,435.305,239.865,436.648Zm22.3-8.894-.859-1.806c2.6-1.237,5.058-2.5,7.309-3.766,1.07-.6,2.142-1.2,3.185-1.789l.981,1.743c-1.044.588-2.117,1.191-3.188,1.791C267.3,425.211,264.8,426.5,262.16,427.754Zm-80.935-2-1.908-.6a68.735,68.735,0,0,0,2.554-11.484l1.982.269A70.71,70.71,0,0,1,181.225,425.751ZM21.542,425.61A67.52,67.52,0,0,1,14,416.132l1.67-1.1a65.512,65.512,0,0,0,7.318,9.2Zm261.631-9.383-1-1.735c3.631-2.084,7.1-4.1,10.322-5.994l1.014,1.724C290.289,412.12,286.81,414.14,283.173,416.228ZM8.187,405.53c-1.248-2.733-2.232-5.221-3.1-7.417-.5-1.256-.964-2.522-1.388-3.762L5.59,393.7c.414,1.21.87,2.446,1.355,3.673.86,2.173,1.835,4.636,3.061,7.322Zm295.593-1.454-1.042-1.707c3.728-2.276,7.031-4.348,10.1-6.335l1.087,1.679C310.841,399.709,307.523,401.791,303.78,404.076ZM182.6,401.89c-.011-3.614-.206-7.489-.6-11.845l1.992-.178c.395,4.414.592,8.344.6,12.017Zm141.27-10.747-1.038-1.709c2.837-1.723,4.714-2.287,11.44-4.17l.539,1.926C328.158,389.051,326.488,389.551,323.868,391.143Zm101.418-3.128a71.247,71.247,0,0,1-7.87-.385l.224-1.987a81.79,81.79,0,0,0,11.786.295l.072,2Q427.3,388.015,425.286,388.015Zm16.2-.965-.212-1.989c3.816-.407,7.784-.936,11.793-1.572l.314,1.975C449.335,386.106,445.333,386.639,441.483,387.049Zm-35.868-1.535c-3.755-.6-7.723-1.1-11.791-1.485l.188-1.991c4.111.389,8.121.894,11.918,1.5Zm-59.242-.715-.289-1.979c3.7-.539,7.718-.963,11.956-1.259l.139,2C353.991,383.848,350.019,384.266,346.373,384.8Zm118.806-1.5-.41-1.958c4.078-.853,7.969-1.782,11.563-2.761l.525,1.93C473.225,381.5,469.3,382.435,465.179,383.3Zm-83.222-.059c-3.957-.157-7.959-.212-11.9-.163l-.025-2c3.971-.05,8.008.005,12,.164ZM.733,382.616a56.122,56.122,0,0,1-.642-12.127l2,.119A54.118,54.118,0,0,0,2.709,382.3Zm179.75-4.324a85.675,85.675,0,0,0-2.938-11.43l1.9-.634a87.69,87.69,0,0,1,3.007,11.7Zm307.845-1.468-.721-1.866a39.575,39.575,0,0,0,7.993-3.944c.73-.5,1.469-1.046,2.2-1.61l1.224,1.582c-.756.585-1.524,1.148-2.283,1.673A41.485,41.485,0,0,1,488.329,376.824Zm19.529-14.118-1.482-1.343a100.65,100.65,0,0,0,7.376-9.242l1.63,1.159A102.649,102.649,0,0,1,507.858,362.706ZM4.21,359.136l-1.9-.609A49.1,49.1,0,0,1,7.439,347.5l1.7,1.059A47.092,47.092,0,0,0,4.21,359.136Zm168.739-3.116a66.673,66.673,0,0,0-6.346-9.9l1.58-1.226a68.685,68.685,0,0,1,6.537,10.194ZM521.9,343.165l-1.725-1.012c1.954-3.331,3.849-6.849,5.63-10.456l1.793.885C525.8,336.232,523.878,339.793,521.9,343.165ZM16.405,339.376l-1.429-1.4A68.969,68.969,0,0,1,24.2,330.13l1.162,1.628A66.965,66.965,0,0,0,16.405,339.376Zm142.18-1.842a68.545,68.545,0,0,0-9.424-7.037l1.057-1.7a70.556,70.556,0,0,1,9.7,7.243ZM35.445,325.642l-.915-1.779c.348-.179.7-.358,1.054-.534,3.256-1.622,6.606-3.093,9.959-4.373l.713,1.868c-3.292,1.257-6.582,2.7-9.78,4.294C36.132,325.291,35.785,325.467,35.445,325.642Zm103.253-.574c-1.065-.456-2.163-.9-3.265-1.321-2.618-1-5.262-1.935-7.858-2.784l.622-1.9c2.627.859,5.3,1.807,7.949,2.817,1.127.43,2.251.885,3.34,1.351Zm393.838-3.445-1.853-.752c.121-.3.242-.6.358-.892a92.2,92.2,0,0,0,3.113-10.382l1.94.487a94.061,94.061,0,0,1-3.194,10.632C532.781,321.015,532.659,321.32,532.536,321.623Zm-416.372-3.931c-3.892-.956-7.8-1.747-11.626-2.352l.313-1.975c3.878.614,7.845,1.417,11.791,2.386Zm-58.637-.468-.5-1.936a109.269,109.269,0,0,1,11.817-2.373l.285,1.98A107.287,107.287,0,0,0,57.527,317.223Zm35.231-3.2a118.325,118.325,0,0,0-11.842-.177l-.072-2a120.342,120.342,0,0,1,12.043.18ZM538.7,298.374l-1.962-.388c.767-3.875,1.459-7.82,2.059-11.727l1.977.3C540.172,290.5,539.474,294.471,538.7,298.374Zm3.621-23.708-1.989-.21c.435-4.128.741-8.116.908-11.852l2,.089C543.071,266.47,542.763,270.5,542.323,274.666Zm-1.038-23.918a74.363,74.363,0,0,0-1.354-11.7l1.958-.408a76.339,76.339,0,0,1,1.394,12.017Zm-273.361-.2a97.172,97.172,0,0,1-12.01-1.14l.32-1.974A95.228,95.228,0,0,0,268,248.553Zm12.014-.013-.061-2c3.131-.095,6.225-.237,9.5-.387l2.422-.11.09,2-2.42.11C286.331,250.294,283.085,250.443,279.938,250.538Zm23.933-1.024-.188-1.991a78.278,78.278,0,0,0,11.591-2.125l.49,1.939A80.254,80.254,0,0,1,303.871,249.514Zm-59.7-2.988c-3.954-1.287-7.763-2.624-11.32-3.975l.71-1.87c3.527,1.339,7.3,2.665,11.229,3.943Zm83.114-2.615-.635-1.9c3.472-1.162,7.135-2.484,11.2-4.041l.716,1.868C334.478,241.409,330.788,242.74,327.289,243.911Zm-105.527-5.975a109.27,109.27,0,0,1-10.69-5.572l1.031-1.714a107.276,107.276,0,0,0,10.493,5.468ZM349.69,235.4l-.764-1.848c3.343-1.382,6.938-2.9,10.992-4.651l.792,1.837C356.646,232.488,353.042,234.013,349.69,235.4Zm185.143-6.5a65.352,65.352,0,0,0-8.111-8.5l1.327-1.5a67.359,67.359,0,0,1,8.359,8.768ZM371.67,225.957l-.8-1.831c2.042-.9,4.123-1.815,6.136-2.7l4.8-2.115.806,1.831-4.8,2.115C375.794,224.141,373.713,225.059,371.67,225.957Zm-170.321-.9a22.251,22.251,0,0,1-4.147-5.487c-.9-1.758-1.686-3.332-2.405-4.81l1.8-.875c.713,1.466,1.494,3.028,2.387,4.774a20.275,20.275,0,0,0,3.78,4.983Zm192.2-8.7-.794-1.836c4.069-1.761,7.67-3.292,11.009-4.683l.769,1.846C401.2,213.07,397.611,214.6,393.551,216.355Zm123.808-3.142a94.656,94.656,0,0,0-10.233-5.91l.891-1.791a96.693,96.693,0,0,1,10.45,6.035Zm-101.766-5.994-.725-1.864c4.067-1.582,7.747-2.938,11.249-4.146l.652,1.891C423.292,204.3,419.636,205.647,415.593,207.219Zm-225.55-3.544a34.156,34.156,0,0,1-2.173-12.036l2,.029a32.258,32.258,0,0,0,2.063,11.353Zm306.2-.993a104.1,104.1,0,0,0-11.352-3.326l.453-1.948a106.121,106.121,0,0,1,11.571,3.39ZM438.11,199.56l-.527-1.929a98.843,98.843,0,0,1,11.8-2.541l.285,1.98A96.838,96.838,0,0,0,438.11,199.56Zm35.124-2.249a117.006,117.006,0,0,0-11.811-.81l.037-2a119.045,119.045,0,0,1,12.014.824ZM191.862,180.18l-1.927-.536c1.006-3.619,2.244-7.356,3.786-11.425l1.87.709C194.071,172.939,192.851,176.62,191.862,180.18Zm8.269-22.247-1.831-.806c1.549-3.519,3.185-7.079,4.767-10.521l.173-.377,1.817.835-.173.377C203.306,150.876,201.673,154.428,200.131,157.933Zm9.852-21.777-1.834-.8c1.725-3.967,3.179-7.574,4.446-11.026l1.878.689C213.192,128.51,211.723,132.152,209.983,136.155Zm8.161-22.6-1.931-.519a93.361,93.361,0,0,0,2.378-11.572l1.982.27A95.365,95.365,0,0,1,218.144,113.56Zm1.061-23.835a53.355,53.355,0,0,0-1.7-11.58l1.933-.513A55.353,55.353,0,0,1,221.2,89.647ZM213.173,67.3a51.239,51.239,0,0,0-3.35-5.313,49.368,49.368,0,0,0-3.411-4.223l1.485-1.339a51.374,51.374,0,0,1,3.55,4.4,53.246,53.246,0,0,1,3.481,5.521ZM197.683,49.93a74.84,74.84,0,0,0-10.032-6.171l.916-1.778a76.836,76.836,0,0,1,10.3,6.338ZM48.632,48.32l-.044-2a81.852,81.852,0,0,0,11.736-1.187l.33,1.973A83.8,83.8,0,0,1,48.632,48.32ZM36.519,47.207a34.1,34.1,0,0,1-11.278-4.759l1.105-1.667a32.108,32.108,0,0,0,10.62,4.476Zm35.9-2.6-.483-1.941c3.318-.826,6.863-1.789,11.5-3.12l.552,1.922C79.326,42.809,75.759,43.777,72.418,44.609Zm104.4-5.571A116.235,116.235,0,0,0,165.5,35.559l.492-1.939a118.257,118.257,0,0,1,11.514,3.539Zm-81.36-.909L94.9,36.208c3.2-.925,7.4-2.122,11.552-3.178l.493,1.938C102.823,36.017,98.641,37.208,95.458,38.129Zm-79-4.2a47.083,47.083,0,0,1-4.492-7.65l-.03-.064-.981-3.181,1.911-.589.939,3.044a45.014,45.014,0,0,0,4.269,7.261Zm137.433-.769c-3.845-.622-7.808-1.1-11.781-1.419l.16-1.994c4.025.324,8.043.808,11.94,1.438Zm-35.342-.718-.338-1.971a77.584,77.584,0,0,1,12.031-1.212l.029,2A75.616,75.616,0,0,0,118.544,32.445Z" transform="translate(0.343 0.401)" fill="#171717"/>
        <path id="Line_70" data-name="Line 70" d="M.9,6.329-.956.295.956-.295,2.816,5.74Z" transform="translate(5.188 0.238)" fill="#171717"/>
      </g>
    </g>
    <circle id="Ellipse_111" data-name="Ellipse 111" cx="11.5" cy="11.5" r="11.5" transform="translate(173.599 705.75)" fill="#b5e1ea"/>
    <circle id="Ellipse_112" data-name="Ellipse 112" cx="11.5" cy="11.5" r="11.5" transform="translate(365.126 763.25)" fill="#b5e1ea"/>
    <circle id="Ellipse_113" data-name="Ellipse 113" cx="11.5" cy="11.5" r="11.5" transform="translate(368.599 934.75)" fill="#b5e1ea"/>
    <circle id="Ellipse_114" data-name="Ellipse 114" cx="11.5" cy="11.5" r="11.5" transform="translate(708.5 1004.25)" fill="#b5e1ea"/>
    <circle id="Ellipse_115" data-name="Ellipse 115" cx="11.5" cy="11.5" r="11.5" transform="translate(380.099 1404.641)" fill="#b5e1ea"/>
    <circle id="Ellipse_116" data-name="Ellipse 116" cx="11.5" cy="11.5" r="11.5" transform="translate(234 1250.75)" fill="#b5e1ea"/>
    <circle id="Ellipse_117" data-name="Ellipse 117" cx="11.5" cy="11.5" r="11.5" transform="translate(177.599 1065.153)" fill="#b5e1ea"/>
    <circle id="Ellipse_118" data-name="Ellipse 118" cx="11.5" cy="11.5" r="11.5" transform="translate(519.425 1100.75)" fill="#b5e1ea"/>
    <circle id="Ellipse_119" data-name="Ellipse 119" cx="11.5" cy="11.5" r="11.5" transform="translate(570.599 930.25)" fill="#b5e1ea"/>
  </g>
</svg>
